<?xml version="1.0" standalone="no"?>
<!DOCTYPE svg PUBLIC "-//W3C//DTD SVG 20010904//EN"
 "http://www.w3.org/TR/2001/REC-SVG-20010904/DTD/svg10.dtd">
<svg version="1.0" xmlns="http://www.w3.org/2000/svg"
 width="2086.000000pt" height="2086.000000pt" viewBox="0 0 2086.000000 2086.000000"
 preserveAspectRatio="xMidYMid meet">

<g transform="translate(0.000000,2086.000000) scale(0.100000,-0.100000)"
fill="#000000" stroke="none">
<path d="M10375 16803 c-195 -11 -419 -46 -584 -89 -947 -248 -1784 -945
-2366 -1969 -70 -124 -165 -311 -165 -325 0 -7 -25 -67 -54 -134 -330 -735
-506 -1569 -506 -2406 0 -251 9 -385 41 -600 11 -74 24 -169 29 -211 29 -244
193 -781 364 -1191 159 -383 464 -969 616 -1188 21 -30 78 -113 126 -185 47
-71 125 -183 171 -248 141 -196 184 -314 182 -503 0 -60 -7 -131 -14 -159 -7
-27 -13 -43 -14 -35 -1 16 -5 18 -751 397 -278 141 -624 317 -770 391 -146 75
-360 183 -475 241 -243 123 -301 160 -421 273 -181 171 -299 378 -350 611 -21
97 -21 296 0 417 33 187 126 420 234 585 25 39 55 86 65 105 11 19 70 116 132
215 206 329 416 715 510 935 15 36 33 79 40 95 38 85 54 125 70 170 9 28 21
59 26 70 32 78 116 374 149 525 82 388 77 861 -16 1350 -103 545 -280 989
-570 1432 -379 577 -892 958 -1454 1079 -90 20 -135 23 -320 24 -186 0 -230
-3 -329 -23 -576 -117 -1109 -524 -1485 -1135 -119 -193 -250 -461 -318 -652
-199 -555 -275 -1187 -217 -1800 18 -188 90 -539 135 -657 7 -21 11 -38 8 -38
-4 0 0 -7 7 -17 8 -9 13 -18 12 -20 -2 -1 -3 -4 -2 -5 0 -2 2 -13 5 -26 2 -13
13 -43 24 -67 11 -24 20 -49 20 -55 0 -7 7 -28 16 -48 9 -21 21 -48 26 -62 6
-14 14 -33 19 -42 5 -10 9 -23 9 -29 0 -6 13 -39 28 -73 16 -33 50 -108 76
-166 139 -310 466 -852 622 -1031 220 -252 319 -568 286 -915 -11 -112 -17
-137 -53 -220 -91 -207 -197 -364 -348 -515 -179 -178 -258 -228 -796 -505
-115 -59 -219 -113 -535 -276 -80 -41 -290 -150 -467 -242 l-323 -168 0 -604
0 -604 2995 0 2995 0 547 291 c302 160 571 306 599 324 115 75 215 186 286
319 43 81 52 83 12 3 -59 -115 -170 -245 -274 -317 -45 -32 -2482 -1330 -2535
-1351 -71 -28 -2747 -1460 -2824 -1511 -40 -27 -82 -58 -94 -69 -11 -10 -36
-29 -54 -42 -18 -12 -36 -30 -39 -39 -3 -10 -10 -18 -16 -18 -6 0 -35 -22 -64
-50 -29 -27 -52 -50 -50 -50 1 0 -24 -28 -57 -61 -32 -34 -70 -80 -85 -103
-15 -22 -32 -44 -38 -48 -22 -14 -114 -166 -160 -265 -25 -54 -50 -105 -54
-114 -18 -34 -60 -207 -68 -279 -5 -42 -9 -105 -8 -140 l1 -65 8747 -3 8746
-2 4 52 c5 67 -10 228 -22 244 -6 6 -7 13 -4 17 3 3 -1 31 -10 61 -9 31 -17
59 -17 63 -1 5 -6 17 -12 28 -6 11 -12 22 -12 25 -9 38 -19 59 -24 55 -4 -2
-8 2 -8 9 0 20 -24 76 -33 76 -3 0 -7 7 -7 15 0 16 -85 160 -117 198 -12 14
-30 38 -41 53 -45 62 -97 119 -105 117 -6 -2 -9 1 -7 5 2 9 -173 192 -184 192
-3 0 -22 15 -41 33 -85 80 -325 217 -1038 594 -52 28 -130 69 -172 92 -43 22
-111 58 -150 80 -40 21 -161 86 -268 143 -107 58 -244 131 -305 163 -60 32
-137 73 -170 90 -161 87 -217 116 -297 159 -114 60 -243 128 -343 183 -44 23
-118 61 -165 83 -120 58 -60 27 -1345 710 -643 342 -1200 642 -1237 667 -110
73 -218 196 -278 314 -27 56 -50 108 -49 117 0 10 6 1 13 -18 60 -162 183
-317 327 -411 30 -20 301 -167 602 -327 l548 -292 2939 0 2940 0 -2 606 -3
607 -315 164 c-173 90 -412 214 -530 275 -118 61 -271 141 -340 177 -189 99
-353 183 -475 245 -124 63 -130 67 -200 117 -27 19 -58 38 -67 42 -10 3 -18
11 -18 17 0 5 -5 10 -12 10 -12 0 -28 14 -145 129 -84 83 -152 162 -167 192
-5 11 -13 19 -18 19 -4 0 -8 7 -8 15 0 8 -4 15 -8 15 -14 0 -129 208 -167 301
-28 69 -37 109 -47 208 -32 334 74 676 282 905 150 166 485 722 631 1046 23
52 55 123 71 156 15 34 28 66 28 71 0 5 9 28 20 51 11 22 20 46 20 52 0 5 4
18 10 28 8 14 33 81 44 117 2 6 8 23 15 39 6 16 13 36 15 45 2 9 6 23 9 31 13
35 78 293 97 385 37 178 50 286 61 500 44 831 -140 1606 -535 2255 -326 535
-794 936 -1279 1095 -204 66 -297 80 -542 80 -191 -1 -234 -4 -325 -23 -630
-137 -1191 -595 -1588 -1297 -59 -106 -202 -397 -202 -414 0 -6 -4 -19 -9 -29
-42 -79 -120 -318 -171 -522 -70 -278 -112 -575 -126 -886 l-7 -152 -53 210
c-103 402 -245 783 -462 1238 -99 206 -330 561 -531 815 -244 308 -574 616
-891 831 -400 271 -859 456 -1301 524 -108 17 -433 43 -464 38 -5 -1 -32 -3
-60 -5z m460 -897 c519 -95 954 -326 1359 -724 584 -573 995 -1414 1161 -2377
62 -359 93 -834 75 -1129 -46 -738 -328 -1549 -833 -2391 -148 -248 -363 -562
-416 -610 -34 -30 -115 -142 -159 -220 -153 -272 -213 -637 -160 -970 31 -192
250 -561 461 -778 202 -206 278 -255 963 -615 313 -165 1431 -753 2484 -1307
1053 -554 1919 -1011 1925 -1016 5 -5 -2913 -9 -7210 -9 -4459 0 -7215 4
-7210 9 6 5 1124 595 2485 1311 1361 716 2511 1326 2555 1354 301 197 529 461
701 811 82 168 88 190 104 361 36 400 -88 795 -339 1078 -163 184 -465 669
-670 1076 -414 821 -601 1547 -577 2235 47 1311 480 2433 1226 3176 421 418
901 666 1440 744 130 19 512 14 635 -9z m-6319 -156 c429 -84 848 -459 1120
-1001 249 -499 368 -1008 369 -1579 0 -212 -3 -260 -22 -360 -44 -226 -146
-548 -224 -703 -16 -31 -29 -59 -29 -62 0 -3 -11 -28 -25 -55 -14 -27 -25 -53
-26 -57 -1 -14 -150 -305 -227 -443 -110 -196 -286 -490 -359 -600 -86 -127
-203 -368 -252 -515 -121 -365 -131 -724 -30 -1090 35 -128 125 -362 176 -455
50 -94 201 -317 218 -324 8 -3 15 -11 15 -18 0 -7 23 -35 52 -61 29 -27 46
-45 38 -41 -8 4 -2 -7 14 -24 17 -18 35 -32 42 -32 6 0 28 -20 48 -45 21 -25
42 -45 48 -45 5 0 19 -11 30 -26 11 -14 23 -23 26 -20 3 3 12 -3 19 -14 8 -11
19 -18 24 -15 5 4 9 2 9 -4 0 -31 250 -165 1025 -552 l840 -418 -2999 -1
c-1650 0 -2997 2 -2995 4 6 5 1080 624 1486 857 51 29 106 65 123 80 16 15 30
25 30 21 1 -4 9 3 19 15 10 12 21 20 24 17 3 -3 12 3 19 15 7 12 18 21 25 21
7 0 22 14 35 30 12 17 27 30 33 30 14 0 167 155 160 162 -4 3 8 16 24 28 17
12 31 26 31 31 0 5 9 20 21 32 33 35 163 235 202 312 141 277 223 579 234 860
18 467 -135 901 -432 1225 -66 72 -180 238 -292 425 -93 154 -281 506 -288
538 -2 9 -12 34 -23 55 -26 50 -74 160 -78 177 -1 6 -8 24 -15 40 -6 17 -13
35 -14 40 -2 6 -12 31 -23 56 -45 99 -116 368 -149 564 -22 133 -24 505 -4
685 77 693 323 1317 684 1735 307 357 699 549 1072 528 44 -3 121 -13 171 -23z
m12148 20 c501 -49 968 -438 1266 -1053 189 -391 290 -752 341 -1217 20 -179
18 -542 -4 -675 -34 -208 -118 -510 -177 -640 -12 -27 -23 -54 -25 -60 -3 -17
-49 -122 -82 -187 -13 -26 -24 -51 -24 -55 -1 -18 -163 -327 -240 -458 -118
-202 -257 -410 -325 -485 -229 -253 -363 -533 -426 -890 -19 -113 -17 -451 5
-570 18 -99 82 -341 97 -369 5 -9 27 -60 49 -113 22 -53 59 -132 84 -175 24
-43 61 -107 81 -143 20 -36 44 -71 53 -77 9 -7 13 -13 7 -13 -5 0 0 -7 11 -16
11 -8 20 -18 20 -23 0 -13 92 -121 99 -116 3 3 4 2 1 -2 -6 -7 134 -153 147
-153 4 0 30 -23 59 -50 29 -28 54 -48 57 -45 3 3 12 -4 19 -15 8 -11 19 -18
24 -15 5 4 9 2 9 -3 0 -11 161 -117 230 -152 39 -20 1291 -741 1375 -792 29
-17 -61 -18 -2970 -18 l-3000 0 840 419 c837 417 985 499 1090 597 22 21 42
38 45 39 8 0 242 235 234 235 -4 0 5 9 20 21 14 11 26 27 26 35 0 8 4 14 9 14
15 0 121 168 192 305 76 147 167 404 198 560 47 234 50 442 11 670 -49 285
-154 542 -339 829 -95 148 -277 452 -358 601 -83 152 -271 530 -273 550 -1 2
-14 31 -29 62 -64 129 -154 405 -196 598 -40 189 -48 290 -42 524 16 551 133
1024 373 1505 295 590 756 969 1236 1015 46 5 88 9 93 9 6 1 55 -3 109 -8z
m-2517 -2662 c-3 -7 -5 -2 -5 12 0 14 2 19 5 13 2 -7 2 -19 0 -25z m10 -50
c-3 -7 -5 -2 -5 12 0 14 2 19 5 13 2 -7 2 -19 0 -25z m10 -50 c-3 -7 -5 -2 -5
12 0 14 2 19 5 13 2 -7 2 -19 0 -25z m10 -50 c-3 -7 -5 -2 -5 12 0 14 2 19 5
13 2 -7 2 -19 0 -25z m10 -55 c-3 -10 -5 -4 -5 12 0 17 2 24 5 18 2 -7 2 -21
0 -30z m10 -60 c-3 -10 -5 -4 -5 12 0 17 2 24 5 18 2 -7 2 -21 0 -30z m31
-198 c0 -16 -6 6 -13 50 -8 44 -13 91 -13 105 0 14 6 -9 14 -50 7 -41 12 -88
12 -105z m9 -97 c-2 -13 -4 -3 -4 22 0 25 2 35 4 23 2 -13 2 -33 0 -45z m67
-348 c20 -63 41 -123 46 -132 6 -10 10 -23 10 -29 0 -6 7 -27 16 -47 9 -21 20
-47 25 -59 23 -58 32 -80 44 -108 7 -16 23 -55 35 -85 81 -198 310 -618 531
-971 71 -113 129 -208 129 -211 0 -3 21 -36 46 -74 62 -92 134 -238 173 -349
119 -336 114 -632 -15 -904 -69 -147 -123 -220 -264 -362 -107 -107 -199 -170
-398 -268 -86 -43 -299 -150 -472 -238 -173 -88 -499 -253 -725 -367 -225
-114 -481 -245 -568 -289 l-158 -82 6 -40 c9 -58 -3 -38 -15 26 -17 89 -13
244 9 330 27 105 67 181 176 334 51 72 137 198 190 280 53 83 105 159 114 170
10 11 50 74 88 140 272 467 497 944 650 1380 83 236 183 584 188 655 1 19 14
95 29 168 50 253 67 419 73 712 3 165 1 341 -6 440 -21 302 -21 312 -7 200 8
-59 30 -156 50 -220z"/>
</g>
</svg>
